<svg width="118" height="120" viewBox="0 0 118 120" xmlns="http://www.w3.org/2000/svg" class="flex-none mr-8"><g fill="none" fill-rule="evenodd"><path d="M35.975 10.519c22.961-8.54 48.498 3.15 57.038 26.112 8.54 22.96-3.15 48.498-26.111 57.038-22.962 8.54-48.499-3.15-57.039-26.112-8.54-22.961 3.15-48.498 26.112-57.038" fill="#DFDFE5"></path><path d="M69.015 99.351c-26.1 9.707-55.127-3.58-64.835-29.68-9.706-26.1 3.582-55.127 29.682-64.834m3.49 8.543l-4.57-12.288m37.966 102.077l-4.57-12.288M50.5 117.975v-15.126M36.465 119H65.71" stroke="#E3E9EA" stroke-width="1.44" stroke-linecap="round"></path><path d="M24.613 52.486c0-14.885 12.067-26.952 26.952-26.952 14.886 0 26.953 12.067 26.953 26.952 0 14.885-12.067 26.952-26.953 26.952-14.885 0-26.952-12.067-26.952-26.952" fill="#F1F1F6"></path><path fill="#FFF" d="M36.236 83.471V35.73l6.048 5.03h19.18l6.137-5.03.126 6.421v40.218"></path><path stroke="#7C899D" stroke-width="1.44" stroke-linecap="round" stroke-linejoin="round" d="M36.236 83.471V35.73l6.048 5.03h19.18l6.137-5.03.126 6.421v40.218"></path><path d="M42.342 57.124a1.687 1.687 0 1 1-3.373 0 1.687 1.687 0 0 1 3.373 0m22.494 0a1.687 1.687 0 1 1-3.374 0 1.687 1.687 0 0 1 3.374 0" fill-opacity=".5" fill="#607D8B"></path><path d="M54.511 55.745l-1.973 3.066c-.22.341-.768.341-.987 0l-1.974-3.066c-.219-.34.055-.766.494-.766h3.947c.438 0 .712.425.493.766" fill="#7C899D"></path><path d="M41.849 49.658c1.477-1.538 4.099-1.347 5.863.427m14.246-.427c-1.477-1.538-4.1-1.347-5.863.427" stroke="#7C899D" stroke-width="2.035" stroke-linecap="round" stroke-linejoin="round"></path><path d="M37.154 68.4h3m-3 3h4m27-2h-7" stroke="#7C899D" stroke-width=".7" stroke-linecap="round" stroke-linejoin="round"></path><path d="M68.154 77.943h-4" stroke="#607D8B" stroke-linecap="round" stroke-linejoin="round"></path><path d="M59.28 58.504a3.561 3.561 0 0 1-7.124 0m0 0a3.561 3.561 0 0 1-7.123 0" stroke="#7C899D" stroke-linecap="round" stroke-linejoin="round" stroke-width=".7"></path><path d="M70.407 71.298c-10.487 10.487-27.49 10.487-37.976 0s-10.486-27.49 0-37.976c10.487-10.486 27.489-10.486 37.976 0 10.487 10.487 10.487 27.489 0 37.976m5.69-43.667C62.468 14 40.37 14 26.74 27.63c-13.63 13.63-13.63 35.728 0 49.358 13.63 13.63 35.728 13.63 49.358 0 13.63-13.63 13.63-35.728 0-49.358" fill="#FFF"></path><path d="M70.407 71.298c-10.487 10.487-27.49 10.487-37.976 0s-10.486-27.49 0-37.976c10.487-10.486 27.489-10.486 37.976 0 10.487 10.487 10.487 27.489 0 37.976zm5.69-43.667C62.468 14 40.37 14 26.74 27.63c-13.63 13.63-13.63 35.728 0 49.358 13.63 13.63 35.728 13.63 49.358 0 13.63-13.63 13.63-35.728 0-49.358z" stroke="#7C899D" stroke-width="1.44" stroke-linecap="round" stroke-linejoin="round"></path><path d="M114.766 115.632a5.98 5.98 0 0 1-8.457 0L83.492 92.815a5.98 5.98 0 0 1 8.457-8.457l22.817 22.817a5.98 5.98 0 0 1 0 8.457" fill="#FFF"></path><path d="M114.766 115.632a5.98 5.98 0 0 1-8.457 0L83.492 92.815a5.98 5.98 0 0 1 8.457-8.457l22.817 22.817a5.98 5.98 0 0 1 0 8.457z" stroke="#7C899D" stroke-width="1.44" stroke-linecap="round"></path><path d="M83.16 84.051l-6.382-6.382" stroke="#7C899D" stroke-width="2" stroke-linecap="round"></path><path d="M86.99 95.54l7.659-7.66" stroke="#7C899D" stroke-width="1.44" stroke-linecap="round"></path></g></svg>
